<svg id="Capa_1" enable-background="new 0 0 512 512" height="512" viewBox="0 0 512 512" width="512" xmlns="http://www.w3.org/2000/svg" xmlns:xlink="http://www.w3.org/1999/xlink"><linearGradient id="SVGID_1_" gradientUnits="userSpaceOnUse" x1="-19.521" x2="541.451" y1="614.372" y2="-104.092"><stop offset=".007" stop-color="#9494ff"/><stop offset=".992" stop-color="#ffe8dc" stop-opacity="0"/></linearGradient><g><path d="m512 256c0-27.631-12.504-53.535-34.347-75.837-15.199-15.518-27.854-33.295-37.513-52.751-30.889-62.217-83.554-103.196-143.336-103.196-42.483 0-81.369 20.698-111.403 55.003-19.88 22.707-44.981 40.125-72.987 51.371-67.839 27.242-112.414 73.243-112.414 125.41s44.575 98.168 112.414 125.41c28.006 11.246 53.107 28.664 72.988 51.371 30.034 34.305 68.92 55.003 111.403 55.003 59.782 0 112.447-40.979 143.336-103.196 9.659-19.456 22.314-37.233 37.513-52.751 21.842-22.302 34.346-48.206 34.346-75.837z" fill="url(#SVGID_1_)"/><g><g><path d="m411 430.73c-1.28 0-2.559-.488-3.536-1.464l-11-11c-1.953-1.953-1.953-5.119 0-7.071l11-11c1.953-1.952 5.118-1.952 7.071 0l11 11c1.953 1.953 1.953 5.119 0 7.071l-11 11c-.976.976-2.255 1.464-3.535 1.464zm-3.929-16 3.929 3.929 3.929-3.929-3.929-3.928z" fill="#ff9d33"/></g><g><path d="m92.86 152.819c-1.28 0-2.559-.488-3.536-1.464l-11-11c-1.953-1.953-1.953-5.119 0-7.071l11-11c1.953-1.952 5.118-1.952 7.071 0l11 11c1.953 1.953 1.953 5.119 0 7.071l-11 11c-.976.976-2.255 1.464-3.535 1.464zm-3.929-16 3.929 3.929 3.929-3.929-3.929-3.929z" fill="#ff6c6c"/></g><g><path d="m145 417.73c-7.175 0-13.012-5.837-13.012-13.012s5.837-13.012 13.012-13.012 13.012 5.837 13.012 13.012-5.837 13.012-13.012 13.012zm0-16.023c-1.661 0-3.012 1.351-3.012 3.012s1.351 3.012 3.012 3.012 3.012-1.351 3.012-3.012-1.351-3.012-3.012-3.012z" fill="#6c6cff"/></g><g><path d="m374.667 93.011c-7.175 0-13.012-5.837-13.012-13.012s5.837-13.012 13.012-13.012 13.012 5.838 13.012 13.013-5.838 13.011-13.012 13.011zm0-16.024c-1.661 0-3.012 1.351-3.012 3.012s1.351 3.012 3.012 3.012 3.012-1.351 3.012-3.012-1.351-3.012-3.012-3.012z" fill="#ff9d33"/></g><g><path d="m431.847 140.345c-7.175 0-13.012-5.837-13.012-13.012s5.837-13.012 13.012-13.012 13.012 5.837 13.012 13.012-5.838 13.012-13.012 13.012zm0-16.024c-1.661 0-3.012 1.351-3.012 3.012s1.351 3.012 3.012 3.012 3.012-1.351 3.012-3.012c-.001-1.661-1.352-3.012-3.012-3.012z" fill="#6c6cff"/></g><g><g opacity=".1"><path d="m423.937 253.328c-8.902-14.375-22.226-25.72-38.073-32.144-6.155-66.314-61.942-118.231-129.864-118.231-68.64 0-124.897 53.019-130.052 120.338-14.653 1.93-28.807 8.515-40.066 19.774-9.061 9.061-15.085 20.002-18.108 31.565-21.079 4.854-36.802 23.722-36.802 46.275 0 26.234 21.266 47.5 47.5 47.5 11.054 0 21.217-3.786 29.287-10.118 10.944 10.632 25.868 17.19 42.331 17.19 15.766 0 30.117-6.017 40.915-15.865v64.188c0 6.764 5.483 12.248 12.248 12.248h105.492c6.764 0 12.248-5.484 12.248-12.248v-56.282c10.528 5.096 22.338 7.959 34.819 7.959 19.044 0 36.526-6.66 50.27-17.762 11.046 4.554 23.658 5.519 36.01 1.876 28.752-8.481 45.184-38.665 36.703-67.417-7.247-24.572-30.348-40.131-54.858-38.846z" fill="#00c"/></g><g><path d="m478.796 265.174c-7.248-24.572-30.349-40.131-54.858-38.846-8.902-14.375-22.226-25.72-38.073-32.144-6.156-66.314-61.943-118.231-129.865-118.231-68.64 0-124.897 53.019-130.052 120.338-14.653 1.93-28.807 8.515-40.066 19.774-9.061 9.061-15.085 20.002-18.108 31.565-21.079 4.854-36.802 23.722-36.802 46.275 0 26.234 21.266 47.5 47.5 47.5 11.054 0 21.217-3.786 29.287-10.118 10.944 10.632 25.868 17.19 42.331 17.19 16.993 0 32.349-6.982 43.377-18.225 17.946 11.534 39.301 18.225 62.219 18.225 19.911 0 38.642-5.05 54.983-13.939 12.854 8.79 28.395 13.939 45.143 13.939 19.044 0 36.526-6.66 50.27-17.762 11.046 4.554 23.658 5.519 36.01 1.876 28.753-8.482 45.185-38.665 36.704-67.417z" fill="#8383ff"/><path d="m439.92 333.181c-11.65 2.93-23.44 1.82-33.84-2.47-13.74 11.11-31.22 17.77-50.27 17.77-16.74 0-32.29-5.15-45.14-13.94-16.34 8.89-35.07 13.94-54.98 13.94-22.92 0-44.28-6.7-62.22-18.23-11.03 11.24-26.39 18.23-43.38 18.23-16.46 0-31.39-6.56-42.33-17.19-8.07 6.33-18.23 10.11-29.29 10.11-2.59 0-5.13-.21-7.61-.61-2.9-5.54-4.54-11.85-4.54-18.54 0-19.01 13.25-34.92 31.02-39.01 2.55-9.74 7.62-18.97 15.26-26.6 9.49-9.5 21.42-15.05 33.77-16.67 4.35-56.75 51.77-101.44 109.63-101.44 57.25 0 104.28 43.76 109.47 99.66 13.36 5.42 24.59 14.98 32.09 27.1 20.66-1.09 40.13 12.03 46.24 32.74 3.61 12.25 1.86 24.799-3.88 35.15z" fill="#b3b3ff"/><g><path d="m346.545 276.687-81.885-81.885c-4.783-4.783-12.538-4.783-17.321 0l-81.885 81.885c-7.716 7.716-2.251 20.908 8.66 20.908h16.891v99.205c0 6.764 5.483 12.248 12.248 12.248h105.492c6.764 0 12.248-5.483 12.248-12.248v-99.205h16.891c10.912-.001 16.377-13.193 8.661-20.908z" fill="#ff6c6c"/><path d="m483.592 263.759c-7.493-25.402-30.558-42.507-56.753-42.507-.075 0-.148 0-.223 0-8.883-13.289-21.531-23.983-36.083-30.511-3.72-32.305-18.938-62.119-43.06-84.227-25.022-22.932-57.508-35.561-91.473-35.561-31.486 0-62.16 11.053-86.372 31.122-2.126 1.762-2.421 4.915-.659 7.041 1.762 2.125 4.914 2.421 7.041.659 22.421-18.585 50.829-28.821 79.99-28.821 31.458 0 61.543 11.696 84.717 32.934 23.029 21.106 37.294 49.787 40.169 80.76.173 1.861 1.369 3.47 3.1 4.172 14.666 5.945 27.345 16.65 35.7 30.142.961 1.552 2.691 2.454 4.513 2.361 22.851-1.203 43.323 13.305 49.801 35.267 3.724 12.625 2.309 25.944-3.984 37.504-6.294 11.561-16.713 19.978-29.337 23.702-10.892 3.213-22.195 2.624-32.689-1.703-1.688-.696-3.625-.417-5.047.733-13.487 10.894-29.784 16.651-47.129 16.651-10.371 0-20.469-2.146-29.819-6.209v-34.673h11.891c7.108 0 13.214-4.08 15.935-10.647 2.72-6.567 1.288-13.77-3.739-18.796l-36.345-36.345c-1.953-1.952-5.118-1.952-7.071 0-1.953 1.953-1.953 5.119 0 7.071l36.345 36.345c2.145 2.144 2.732 5.097 1.571 7.898s-3.664 4.474-6.696 4.474h-16.891c-2.761 0-5 2.239-5 5v99.205c0 3.996-3.251 7.248-7.248 7.248h-105.493c-3.996 0-7.248-3.251-7.248-7.248v-99.205c0-2.761-2.239-5-5-5h-16.891c-3.032 0-5.535-1.672-6.696-4.474s-.573-5.754 1.571-7.898l81.885-81.885c1.369-1.369 3.188-2.123 5.125-2.123s3.756.754 5.125 2.123l21.498 21.498c1.953 1.952 5.118 1.952 7.071 0 1.953-1.953 1.953-5.119 0-7.071l-21.498-21.498c-3.257-3.258-7.589-5.052-12.196-5.052s-8.938 1.794-12.196 5.052l-81.885 81.885c-5.026 5.027-6.459 12.229-3.739 18.796 2.72 6.568 8.826 10.647 15.935 10.647h11.891v27.762c-10.041 8.492-22.606 13.12-35.916 13.12-14.58 0-28.376-5.603-38.847-15.776-1.794-1.744-4.602-1.892-6.57-.347-7.548 5.921-16.608 9.052-26.201 9.052-23.435 0-42.5-19.065-42.5-42.5 0-19.913 13.539-36.938 32.924-41.403 1.813-.418 3.245-1.808 3.715-3.608 2.891-11.062 8.703-21.191 16.806-29.294 10.137-10.137 22.995-16.483 37.184-18.353 2.345-.309 4.152-2.217 4.333-4.575 1.738-22.688 9.644-44.48 22.865-63.021 1.604-2.249 1.081-5.371-1.168-6.974s-5.37-1.08-6.974 1.168c-13.511 18.947-21.882 41.038-24.333 64.118-14.815 2.752-28.223 9.812-38.977 20.566-8.657 8.658-15.049 19.319-18.603 30.984-22.386 6.491-37.771 26.802-37.771 50.392 0 28.949 23.551 52.5 52.5 52.5 10.423 0 20.338-2.991 28.92-8.688 11.908 10.193 26.913 15.76 42.698 15.76 12.969 0 25.331-3.738 35.916-10.679v54.001c0 9.51 7.737 17.248 17.248 17.248h105.492c9.51 0 17.248-7.737 17.248-17.248v-48.722c9.463 3.547 19.526 5.399 29.819 5.399 18.405 0 36.443-6.048 51.119-17.084 11.729 4.158 24.604 4.525 36.576.994 15.187-4.48 27.72-14.606 35.291-28.512s9.271-29.929 4.792-45.116z" fill="#00c"/><g><g><path d="m280.433 360.015c-.883 0-1.778-.234-2.588-.726-6.579-3.991-14.133-6.101-21.845-6.101s-15.266 2.109-21.845 6.101c-2.362 1.433-5.437.68-6.868-1.682-1.432-2.361-.679-5.436 1.682-6.868 8.143-4.94 17.49-7.551 27.031-7.551s18.888 2.611 27.031 7.551c2.361 1.432 3.114 4.507 1.682 6.868-.941 1.551-2.59 2.408-4.28 2.408z" fill="#fee"/></g><g><path d="m266.392 376.252c-.883 0-1.778-.234-2.588-.726-4.699-2.851-10.907-2.851-15.606 0-2.361 1.434-5.436.68-6.868-1.682-1.432-2.361-.679-5.436 1.682-6.868 3.914-2.374 8.406-3.629 12.99-3.629s9.076 1.255 12.99 3.629c2.361 1.432 3.114 4.507 1.682 6.868-.943 1.551-2.592 2.408-4.282 2.408z" fill="#fee"/></g><g><path d="m293.423 342.931c-.883 0-1.778-.234-2.588-.726-10.491-6.364-22.537-9.729-34.835-9.729s-24.344 3.364-34.835 9.729c-2.361 1.433-5.436.68-6.868-1.682-1.432-2.361-.679-5.436 1.682-6.868 12.055-7.313 25.895-11.179 40.021-11.179s27.966 3.866 40.021 11.179c2.361 1.432 3.114 4.507 1.682 6.868-.94 1.551-2.59 2.408-4.28 2.408z" fill="#fee"/></g></g></g></g></g></g></g></svg>