<svg id="Capa_1" enable-background="new 0 0 512 512" height="512" viewBox="0 0 512 512" width="512" xmlns="http://www.w3.org/2000/svg" xmlns:xlink="http://www.w3.org/1999/xlink"><linearGradient id="SVGID_1_" gradientUnits="userSpaceOnUse" x1="514.782" x2="-122.413" y1="-43.218" y2="593.978"><stop offset=".0023" stop-color="#ffc599"/><stop offset=".992" stop-color="#ffe8dc" stop-opacity="0"/></linearGradient><g><path d="m428.41 171.888c-8.356-8.356-18.026-14.923-28.717-19.765-28.021-12.69-50.051-35.407-62.434-63.565-22.917-52.113-74.975-88.512-135.545-88.558-79.312-.06-145.163 63.163-148.148 142.418-1.277 33.922 8.857 65.421 26.87 90.969 22.877 32.448 28.821 73.782 17.021 111.69-16.764 53.857-10.919 104.898 20.973 136.791 55.888 55.888 170.586 31.804 256.185-53.795 85.598-85.599 109.683-200.296 53.795-256.185z" fill="url(#SVGID_1_)"/><g><g><g opacity=".1"><g><g><path d="m335.705 405.132c-1.279 0-2.559-.488-3.535-1.464-1.953-1.952-1.953-5.118-.001-7.071l96.447-96.461c1.953-1.953 5.118-1.954 7.071 0 1.953 1.952 1.953 5.118.001 7.071l-96.447 96.461c-.976.976-2.256 1.464-3.536 1.464z" fill="#00c"/></g><g><path d="m356.509 416.638c-1.879 0-3.68-1.064-4.53-2.879-1.172-2.5-.095-5.478 2.405-6.649l43.038-20.172c2.5-1.173 5.477-.096 6.649 2.405 1.172 2.5.095 5.478-2.405 6.649l-43.038 20.172c-.686.322-1.408.474-2.119.474z" fill="#00c"/></g><g><path d="m422.444 386.796c-1.879 0-3.68-1.064-4.53-2.879-1.172-2.5-.095-5.478 2.405-6.649l15.712-7.365c2.497-1.171 5.477-.096 6.649 2.405 1.172 2.5.095 5.478-2.405 6.649l-15.712 7.365c-.686.322-1.408.474-2.119.474z" fill="#00c"/></g></g><g><g><path d="m179.049 405.132c-1.279 0-2.56-.488-3.536-1.465l-96.447-96.461c-1.952-1.953-1.952-5.119.001-7.071s5.118-1.953 7.071 0l96.447 96.461c1.952 1.953 1.952 5.119-.001 7.071-.976.977-2.256 1.465-3.535 1.465z" fill="#00c"/></g><g><path d="m158.245 416.638c-.711 0-1.433-.152-2.119-.474l-43.038-20.172c-2.5-1.172-3.577-4.149-2.405-6.649s4.148-3.578 6.649-2.405l43.038 20.172c2.5 1.172 3.577 4.149 2.405 6.649-.85 1.814-2.651 2.879-4.53 2.879z" fill="#00c"/></g><g><path d="m92.311 386.796c-.711 0-1.433-.152-2.119-.474l-15.712-7.365c-2.5-1.172-3.577-4.149-2.405-6.649 1.173-2.501 4.147-3.579 6.649-2.405l15.712 7.365c2.5 1.172 3.577 4.149 2.405 6.649-.851 1.815-2.651 2.879-4.53 2.879z" fill="#00c"/></g></g></g><g><g><path d="m278.316 412.39 187.272-219.906c2.306-2.708 1.124-6.88-2.252-7.998-64.765-21.436-133.984-33.075-205.959-33.075s-141.194 11.639-205.959 33.075c-3.377 1.118-4.558 5.29-2.252 7.998l187.272 219.906c-33.812 2.469-58.683 10.763-58.683 20.621v37.11c0 11.804 35.648 21.373 79.622 21.373s79.622-9.569 79.622-21.373v-37.11c0-9.858-24.871-18.153-58.683-20.621z" fill="#00c" opacity=".1"/><path d="m336.999 443.121c0 11.804-35.648 21.373-79.622 21.373s-79.622-9.569-79.622-21.373v-37.11h159.243v37.11z" fill="#ff9d33"/><ellipse cx="257.377" cy="406.011" fill="#ffc599" rx="79.622" ry="21.373"/><path d="m470.377 159.861-203.228 238.642c-5.125 6.018-14.419 6.018-19.544 0l-203.228-238.642c66.78-22.95 138.41-35.45 213-35.45s146.22 12.5 213 35.45z" fill="#b3b3ff" opacity=".5"/><path d="m342.497 310.025-75.348 88.476c-5.125 6.018-14.419 6.018-19.543 0l-75.348-88.476c19.31-25.99 50.25-42.83 85.12-42.83 34.869 0 65.809 16.84 85.119 42.83z" fill="#ff4d4d"/><path d="m315.867 284.785c-14.64 15.61-35.45 25.38-58.49 25.38s-43.85-9.77-58.49-25.38c16.76-11.12 36.87-17.59 58.49-17.59s41.73 6.47 58.49 17.59z" fill="#ff2c2c"/></g><g opacity=".1"><g><path d="m281.81 80.044c-.883 0-1.778-.234-2.588-.726-6.579-3.991-14.132-6.1-21.845-6.1s-15.266 2.109-21.845 6.1c-2.361 1.433-5.436.68-6.868-1.682-1.432-2.361-.679-5.436 1.682-6.868 8.143-4.939 17.49-7.55 27.031-7.55s18.889 2.611 27.031 7.55c2.361 1.432 3.114 4.507 1.682 6.868-.94 1.551-2.59 2.408-4.28 2.408z" fill="#00c"/></g><g><path d="m267.769 96.281c-.883 0-1.778-.234-2.588-.726-4.698-2.85-10.908-2.85-15.606 0-2.361 1.433-5.436.68-6.868-1.682s-.679-5.436 1.682-6.868c3.914-2.374 8.405-3.628 12.99-3.628s9.076 1.255 12.99 3.628c2.361 1.432 3.114 4.507 1.682 6.868-.943 1.551-2.592 2.408-4.282 2.408z" fill="#00c"/></g><g><path d="m294.801 62.96c-.883 0-1.778-.234-2.588-.726-10.491-6.364-22.537-9.729-34.835-9.729s-24.344 3.364-34.835 9.729c-2.362 1.433-5.437.68-6.868-1.682-1.432-2.361-.679-5.436 1.682-6.868 12.055-7.313 25.895-11.179 40.021-11.179s27.966 3.866 40.021 11.179c2.361 1.432 3.114 4.507 1.682 6.868-.941 1.551-2.591 2.408-4.28 2.408z" fill="#00c"/></g></g><g fill="#ff9d33"><circle cx="329.205" cy="197.713" r="18.404"/><circle cx="185.549" cy="197.713" r="18.404"/></g><path d="m257.377 295.162c-36.014 0-65.209-29.195-65.209-65.209v-65.209h130.418v65.209c0 36.014-29.195 65.209-65.209 65.209z" fill="#ffab66"/><path d="m334.007 183.309h-153.259c-5.523 0-10-4.477-10-10v-26.922c0-28.199 22.86-51.059 51.059-51.059h71.14c28.199 0 51.059 22.86 51.059 51.059v26.922c.001 5.523-4.477 10-9.999 10z" fill="#6c6cff"/><g fill="#00c"><path d="m473.619 156.057c-2.103-1.79-5.257-1.539-7.049.565l-123.927 145.522c-8.945-10.717-19.892-19.713-32.112-26.4 10.614-12.304 17.055-28.304 17.055-45.79v-8.894c.535.037 1.075.057 1.619.057 12.905 0 23.404-10.499 23.404-23.404 0-6.138-2.378-11.726-6.26-15.901 1.671-2.419 2.656-5.346 2.656-8.502v-26.922c0-30.911-25.147-56.059-56.059-56.059h-71.141c-30.911 0-56.059 25.148-56.059 56.059v26.922c0 3.157.986 6.086 2.658 8.505-3.878 4.178-6.261 9.762-6.261 15.899 0 12.905 10.499 23.404 23.403 23.404.545 0 1.083-.027 1.619-.064v8.9c0 17.486 6.441 33.487 17.055 45.791-12.215 6.684-23.169 15.687-32.112 26.399l-123.924-145.522c-1.792-2.104-4.947-2.355-7.049-.565-2.102 1.791-2.354 4.946-.564 7.048l185.803 218.178c-9.809 1.09-18.833 2.702-26.593 4.785-17.933 4.813-27.024 11.523-27.024 19.942v37.11c0 8.419 9.092 15.129 27.024 19.942 15.449 4.147 35.904 6.431 57.597 6.431s42.148-2.284 57.598-6.431c17.932-4.813 27.024-11.523 27.024-19.942v-37.11c0-8.419-9.093-15.129-27.024-19.942-7.76-2.083-16.785-3.695-26.594-4.785l38.013-44.636c1.79-2.102 1.537-5.258-.564-7.048-2.103-1.79-5.258-1.539-7.049.565l-42.635 50.063c-6.086-.386-12.371-.59-18.768-.59s-12.682.204-18.768.59l-59.907-70.345c8.952-11.105 20.246-20.284 32.923-26.742 12.299 10.594 28.284 17.021 45.752 17.021s33.454-6.427 45.753-17.022c13.856 7.06 26.051 17.347 35.354 29.868 1.883 2.521 5.759 2.652 7.821.26l127.879-150.162c1.788-2.102 1.535-5.257-.567-7.048zm-216.242 303.437c-49.233 0-74.621-11.477-74.621-16.374v-23.723c4.303 2.47 9.969 4.662 17.024 6.556 15.449 4.147 35.904 6.431 57.597 6.431s42.148-2.284 57.598-6.431c7.056-1.894 12.721-4.086 17.024-6.556v23.723c0 4.897-25.389 16.374-74.622 16.374zm74.622-53.483c0 4.896-25.389 16.374-74.622 16.374s-74.621-11.477-74.621-16.374c0-4.061 17.477-12.64 51.515-15.454l9.528 11.188c3.395 3.986 8.344 6.271 13.579 6.271s10.184-2.286 13.577-6.271l9.528-11.188c34.039 2.813 51.516 11.393 51.516 15.454zm-74.622-16.374c3.669 0 7.189.071 10.592.191l-4.627 5.434c-1.491 1.75-3.665 2.755-5.964 2.755-2.3 0-4.475-1.004-5.966-2.755l-4.627-5.434c3.403-.12 6.923-.191 10.592-.191zm71.828-178.52c-.548 0-1.088-.036-1.619-.101v-22.707h6.42c1.421 0 2.791-.212 4.094-.582 2.76 2.45 4.509 6.011 4.509 9.986 0 7.391-6.012 13.404-13.404 13.404zm-143.656 0c-7.391 0-13.403-6.013-13.403-13.404 0-3.972 1.744-7.535 4.499-9.989 1.306.372 2.679.585 4.104.585h6.42v22.703c-.532.065-1.071.105-1.62.105zm11.619 18.836v-46.644c0-2.761-2.238-5-5-5h-11.42c-2.757 0-5-2.243-5-5v-26.922c0-25.397 20.662-46.059 46.059-46.059h71.141c25.396 0 46.059 20.662 46.059 46.059v26.922c0 2.757-2.243 5-5 5h-29.2v-15.844c0-2.761-2.238-5-5-5s-5 2.239-5 5v15.844h-5.929v-26.246c0-2.761-2.238-5-5-5s-5 2.239-5 5v26.246h-38.918v-10.623c0-2.761-2.238-5-5-5s-5 2.239-5 5v10.623h-4.535c-2.762 0-5 2.239-5 5s2.238 5 5 5h92.162v41.644c0 33.199-27.01 60.209-60.209 60.209s-60.21-27.01-60.21-60.209z"/><path d="m281.811 53.044c1.69 0 3.34-.857 4.28-2.408 1.432-2.361.679-5.436-1.683-6.868-8.144-4.94-17.491-7.551-27.031-7.551-9.541 0-18.888 2.611-27.031 7.551-2.36 1.432-3.113 4.507-1.682 6.868 1.433 2.361 4.507 3.115 6.869 1.682 6.578-3.991 14.132-6.101 21.844-6.101 7.711 0 15.266 2.109 21.846 6.101.81.492 1.705.726 2.588.726z"/><path d="m257.377 56.377c-4.585 0-9.076 1.255-12.989 3.628-2.361 1.432-3.114 4.507-1.683 6.868 1.434 2.361 4.509 3.115 6.868 1.682 2.35-1.425 5.048-2.178 7.804-2.178s5.454.753 7.804 2.178c.811.492 1.705.726 2.588.726 1.69 0 3.34-.857 4.28-2.408 1.432-2.361.679-5.436-1.683-6.868-3.913-2.373-8.404-3.628-12.989-3.628z"/><path d="m222.541 35.234c10.492-6.364 22.539-9.729 34.836-9.729 12.298 0 24.344 3.364 34.835 9.729.811.492 1.705.726 2.589.726 1.69 0 3.339-.857 4.279-2.408 1.433-2.361.68-5.436-1.681-6.868-12.056-7.313-25.895-11.179-40.022-11.179-14.126 0-27.966 3.866-40.021 11.179-2.361 1.432-3.114 4.507-1.683 6.868 1.434 2.361 4.51 3.116 6.868 1.682z"/><path d="m435.688 273.135c-1.953-1.953-5.118-1.953-7.071 0l-96.447 96.461c-1.952 1.953-1.952 5.119.001 7.071.977.977 2.256 1.464 3.535 1.464s2.56-.488 3.536-1.465l96.447-96.461c1.952-1.952 1.952-5.118-.001-7.07z"/><path d="m397.422 359.938-43.037 20.172c-2.5 1.172-3.577 4.149-2.405 6.649.851 1.814 2.651 2.879 4.53 2.879.711 0 1.433-.152 2.119-.474l43.037-20.172c2.5-1.172 3.577-4.149 2.405-6.649-1.172-2.501-4.15-3.578-6.649-2.405z"/><path d="m436.03 342.903-15.712 7.365c-2.5 1.172-3.577 4.149-2.405 6.649.851 1.814 2.651 2.879 4.53 2.879.711 0 1.434-.152 2.119-.474l15.712-7.365c2.5-1.172 3.577-4.149 2.405-6.649-1.172-2.501-4.152-3.576-6.649-2.405z"/><path d="m175.513 376.667c.977.977 2.257 1.465 3.536 1.465s2.559-.488 3.535-1.464c1.953-1.952 1.953-5.118.001-7.071l-96.447-96.461c-1.953-1.953-5.118-1.953-7.071 0s-1.953 5.118-.001 7.071z"/><path d="m160.37 380.11-43.037-20.172c-2.503-1.173-5.477-.095-6.649 2.405s-.095 5.478 2.405 6.649l43.037 20.172c.687.322 1.408.474 2.119.474 1.879 0 3.68-1.065 4.53-2.879 1.172-2.5.095-5.477-2.405-6.649z"/><path d="m94.436 350.268-15.712-7.365c-2.503-1.173-5.477-.096-6.649 2.405-1.172 2.5-.095 5.478 2.405 6.649l15.712 7.365c.687.322 1.408.474 2.119.474 1.879 0 3.68-1.064 4.53-2.879 1.172-2.5.095-5.477-2.405-6.649z"/><path d="m279.795 240.21c-2.762 0-5 2.239-5 5 0 9.604-7.813 17.417-17.418 17.417s-17.418-7.813-17.418-17.417c0-2.761-2.238-5-5-5s-5 2.239-5 5c0 15.118 12.3 27.417 27.418 27.417s27.418-12.299 27.418-27.417c0-2.761-2.238-5-5-5z"/></g></g></g><g><path d="m387.835 462.837c-1.279 0-2.56-.488-3.535-1.464l-11.292-11.292c-1.953-1.953-1.953-5.119 0-7.071l11.292-11.292c.938-.938 2.209-1.464 3.535-1.464s2.598.527 3.535 1.464l11.292 11.292c1.953 1.953 1.953 5.119 0 7.071l-11.292 11.292c-.975.976-2.256 1.464-3.535 1.464zm-4.221-16.292 4.221 4.221 4.221-4.221-4.221-4.221z" fill="#ff6c6c"/></g><g><path d="m356.877 77.669c-1.279 0-2.56-.488-3.535-1.464l-11.292-11.292c-1.953-1.953-1.953-5.119 0-7.071l11.292-11.292c.938-.938 2.209-1.464 3.535-1.464s2.598.527 3.535 1.464l11.293 11.292c.938.938 1.465 2.209 1.465 3.536s-.527 2.598-1.465 3.536l-11.293 11.292c-.975.975-2.256 1.463-3.535 1.463zm-4.221-16.292 4.221 4.221 4.222-4.221-4.222-4.221z" fill="#ff9d33"/></g><g><path d="m97.315 451.545c-1.326 0-2.598-.527-3.535-1.464l-11.292-11.292c-1.953-1.953-1.953-5.119 0-7.071l11.292-11.292c.938-.938 2.209-1.464 3.535-1.464s2.598.527 3.535 1.464l11.293 11.292c.938.938 1.465 2.209 1.465 3.536s-.526 2.598-1.465 3.536l-11.293 11.292c-.938.936-2.209 1.463-3.535 1.463zm-4.221-16.293 4.221 4.221 4.222-4.221-4.222-4.221z" fill="#ff9d33"/></g><g><path d="m49.848 269.99c-7.292 0-13.225-5.933-13.225-13.225s5.933-13.225 13.225-13.225 13.225 5.933 13.225 13.225c-.001 7.292-5.933 13.225-13.225 13.225zm0-16.45c-1.778 0-3.225 1.447-3.225 3.225s1.446 3.225 3.225 3.225 3.225-1.447 3.225-3.225c-.001-1.778-1.447-3.225-3.225-3.225z" fill="#ff6c6c"/></g><g><path d="m378.025 116.777c-7.293 0-13.226-5.933-13.226-13.225s5.933-13.225 13.226-13.225c7.292 0 13.225 5.933 13.225 13.225 0 7.293-5.933 13.225-13.225 13.225zm0-16.449c-1.778 0-3.226 1.447-3.226 3.225s1.447 3.225 3.226 3.225 3.225-1.447 3.225-3.225c0-1.779-1.446-3.225-3.225-3.225z" fill="#6c6cff"/></g></g></g></svg>