<svg id="Capa_1" enable-background="new 0 0 512 512" height="512" viewBox="0 0 512 512" width="512" xmlns="http://www.w3.org/2000/svg" xmlns:xlink="http://www.w3.org/1999/xlink"><linearGradient id="SVGID_1_" gradientUnits="userSpaceOnUse" x1="277.606" x2="233.606" y1="2.618" y2="518.618"><stop offset=".007" stop-color="#9494ff"/><stop offset=".992" stop-color="#ffe8dc" stop-opacity="0"/></linearGradient><g><path d="m512 256c0-27.631-12.504-53.535-34.347-75.837-15.199-15.518-27.854-33.295-37.513-52.751-30.889-62.217-83.554-103.196-143.336-103.196-42.483 0-81.369 20.698-111.403 55.003-19.88 22.707-44.981 40.125-72.987 51.371-67.839 27.242-112.414 73.243-112.414 125.41s44.575 98.168 112.414 125.41c28.006 11.246 53.107 28.664 72.988 51.371 30.034 34.305 68.92 55.003 111.403 55.003 59.782 0 112.447-40.979 143.336-103.196 9.659-19.456 22.314-37.233 37.513-52.751 21.842-22.302 34.346-48.206 34.346-75.837z" fill="url(#SVGID_1_)"/><g><g opacity=".1"><path d="m470 273c0-21.409-18.555-41.32-52.57-56.788.107-.812.181-1.633.181-2.473 0-6.032-2.846-11.402-7.255-14.872 13.06-34.922 12.084-62.07-3.035-77.188-16.813-16.815-48.496-16.146-89.215 1.878-.084.037-.168.077-.252.114-.033-.085-.064-.173-.097-.259-16.047-41.536-37.98-64.412-61.757-64.412-21.481 0-41.455 18.675-56.944 52.908-.554-.049-1.112-.085-1.679-.085-5.963 0-11.283 2.778-14.756 7.099-35.289-13.359-62.715-12.472-77.942 2.757-16.813 16.813-16.146 48.497 1.878 89.215.037.084.077.168.114.252-.085.033-.173.064-.259.097-41.536 16.047-64.412 37.98-64.412 61.757s22.876 45.71 64.413 61.756c.085.033.173.064.259.097-.037.084-.077.168-.114.252-18.024 40.718-18.691 72.402-1.878 89.215 8.1 8.101 19.649 12.143 33.999 12.143 12.177 0 26.378-2.925 42.189-8.74 3.464 4.51 8.893 7.436 15.006 7.436 1.203 0 2.376-.125 3.517-.34 15.442 33.765 35.282 52.181 56.609 52.181 23.777 0 45.71-22.876 61.756-64.413.033-.085.065-.173.097-.259.084.037.168.077.252.114 21.104 9.342 39.778 14.021 55.216 14.021 14.348-.001 25.9-4.043 33.999-12.143 5.918-5.917 9.66-13.684 11.252-23.032 7.523-2.506 12.969-9.601 12.969-17.956 0-9.31-6.761-17.053-15.627-18.624-2.337-9.202-5.823-19.099-10.473-29.604-.037-.084-.077-.168-.114-.252.085-.033.173-.064.259-.097 41.538-16.045 64.414-37.978 64.414-61.755zm-273.714 124.315c-3.907-13.373-7.14-27.823-9.654-43.071 11.129 1.492 22.599 2.624 34.318 3.377 8.819 7.754 17.73 15.064 26.654 21.878-12.745 9.137-25.433 17.17-37.823 23.924-3.375-3.662-8.161-5.993-13.495-6.108zm1.091-247.627c5.552 0 10.538-2.417 14.004-6.238 11.881 6.569 24.026 14.307 36.223 23.051-8.924 6.814-17.835 14.124-26.654 21.878-11.719.754-23.189 1.885-34.318 3.377 2.455-14.893 5.594-29.028 9.38-42.138.452.033.904.07 1.365.07zm119.25 62.685c-4.456-4.456-8.96-8.802-13.497-13.041 8.096.724 16.045 1.634 23.812 2.726 1.092 7.767 2.002 15.716 2.726 23.812-4.24-4.537-8.585-9.041-13.041-13.497zm-25.576-23.994c-8.819-7.754-17.73-15.064-26.654-21.878 16.181-11.6 32.27-21.423 47.773-29.106 5.53 16.395 9.96 34.717 13.199 54.361-11.129-1.492-22.599-2.623-34.318-3.377zm-16.286-.797c-6.206-.21-12.463-.323-18.765-.323s-12.559.112-18.765.323c6.237-5.213 12.501-10.19 18.765-14.91 6.264 4.721 12.528 9.698 18.765 14.91zm-65.895 11.75c-4.537 4.24-9.041 8.585-13.497 13.041s-8.802 8.96-13.041 13.497c.724-8.096 1.634-16.045 2.726-23.812 7.767-1.092 15.716-2.002 23.812-2.726zm-37.491 38.617c-7.754 8.819-15.064 17.73-21.878 26.654-11.6-16.181-21.423-32.27-29.106-47.773 16.395-5.53 34.717-9.96 54.361-13.199-1.492 11.129-2.623 22.599-3.377 34.318zm-.797 16.286c-.21 6.206-.323 12.463-.323 18.765s.112 12.559.323 18.765c-5.213-6.237-10.19-12.501-14.91-18.765 4.721-6.264 9.698-12.528 14.91-18.765zm.797 53.816c.754 11.719 1.885 23.189 3.377 34.318-19.644-3.239-37.967-7.67-54.361-13.199 7.683-15.503 17.506-31.592 29.106-47.773 6.814 8.924 14.124 17.834 21.878 26.654zm10.953 12.079c4.24 4.537 8.585 9.041 13.041 13.497s8.96 8.802 13.497 13.041c-8.096-.724-16.045-1.634-23.812-2.726-1.092-7.767-2.002-15.716-2.726-23.812zm54.903 38.288c6.206.21 12.463.323 18.765.323s12.559-.112 18.765-.323c-6.237 5.213-12.501 10.19-18.765 14.91-6.264-4.721-12.528-9.698-18.765-14.91zm53.816-.797c11.719-.754 23.189-1.885 34.318-3.377-3.239 19.644-7.67 37.967-13.199 54.361-15.503-7.683-31.592-17.506-47.773-29.106 8.924-6.814 17.834-14.124 26.654-21.878zm12.079-10.953c4.537-4.24 9.041-8.585 13.497-13.041s8.802-8.96 13.041-13.497c-.724 8.096-1.634 16.045-2.726 23.812-7.767 1.092-15.716 2.002-23.812 2.726zm37.491-38.617c7.754-8.819 15.064-17.73 21.878-26.654 11.6 16.181 21.423 32.27 29.106 47.773-16.395 5.53-34.717 9.96-54.361 13.199 1.492-11.129 2.623-22.599 3.377-34.318zm.797-16.286c.21-6.206.323-12.463.323-18.765s-.112-12.559-.323-18.765c5.213 6.237 10.19 12.501 14.91 18.765-4.721 6.264-9.698 12.528-14.91 18.765zm-.797-53.816c-.754-11.719-1.885-23.189-3.377-34.318 15.043 2.48 29.312 5.659 42.533 9.496-.007.205-.031.405-.031.612 0 5.525 2.393 10.488 6.18 13.953-6.65 12.101-14.514 24.479-23.427 36.912-6.814-8.925-14.124-17.835-21.878-26.655zm-18.468-105.247c19.724-8.731 37.159-13.126 51.123-13.126 11.625 0 20.846 3.047 26.974 9.174 11.974 11.975 12.173 35.759.874 66.234-.803-.104-1.615-.177-2.446-.177-6.697 0-12.579 3.506-15.946 8.769-14.564-4.232-30.344-7.688-46.997-10.311-3.436-21.81-8.299-42.119-14.466-60.163.294-.131.591-.27.884-.4zm-66.153-63.702c19.075 0 38.185 21.146 52.428 58.017.116.3.227.607.342.908-17.119 8.399-34.919 19.32-52.77 32.313-13.477-9.809-26.925-18.442-40.073-25.697.249-1.224.382-2.49.382-3.787 0-6.302-3.108-11.88-7.859-15.323 13.575-29.672 30.575-46.431 47.55-46.431zm-140.298 137.847c-16-36.144-17.44-64.608-3.952-78.097 6.129-6.128 15.347-9.174 26.974-9.174 11.258 0 24.776 2.862 39.926 8.544-.121.864-.205 1.739-.205 2.635 0 6.423 3.222 12.101 8.128 15.525-4.231 14.561-7.685 30.336-10.307 46.985-21.81 3.436-42.12 8.3-60.163 14.466-.132-.294-.271-.591-.401-.884zm-5.685 118.581c-36.871-14.243-58.017-33.353-58.017-52.428s21.146-38.185 58.017-52.428c.3-.116.607-.228.908-.342 8.399 17.119 19.32 34.919 32.313 52.77-12.993 17.851-23.914 35.651-32.313 52.77-.301-.115-.609-.227-.908-.342zm1.733 91.822c-13.488-13.488-12.048-41.953 3.952-78.097.13-.294.268-.59.4-.885 18.044 6.166 38.353 11.03 60.163 14.466 2.624 16.66 6.081 32.446 10.316 47.016-5.746 3.254-9.639 9.414-9.639 16.475 0 .757.057 1.499.144 2.233-30.046 10.966-53.478 10.648-65.336-1.208zm196.678 1.733c-14.243 36.871-33.353 58.017-52.428 58.017-17.006 0-34.037-16.82-47.625-46.594 3.933-3.472 6.431-8.534 6.431-14.181 0-1.348-.147-2.661-.416-3.93 13.636-7.426 27.607-16.342 41.609-26.534 17.851 12.993 35.651 23.914 52.77 32.313-.114.302-.226.61-.341.909zm87.87-79.83c4.165 9.408 7.334 18.291 9.519 26.53-7.089 2.738-12.139 9.608-12.139 17.65 0 8.938 6.234 16.431 14.577 18.407-1.4 6.327-4.058 11.564-8.004 15.51-13.49 13.487-41.954 12.048-78.097-3.952-.294-.13-.59-.269-.885-.4 6.166-18.044 11.03-38.353 14.466-60.163 21.81-3.436 42.12-8.3 60.163-14.466.131.294.27.591.4.884zm-27.536-66.153c9.972-13.7 18.724-27.371 26.053-40.727 1.248.26 2.539.399 3.863.399 6.025 0 11.389-2.838 14.859-7.237 29.692 13.578 46.463 30.584 46.463 47.565 0 19.075-21.146 38.185-58.017 52.428-.3.116-.607.228-.908.342-8.399-17.119-19.32-34.919-32.313-52.77z" fill="#00c"/></g><g><g><path d="m336.74 246c0 11.24-.34 22.27-1 33.02-7.14 8.08-14.7 16.12-22.65 24.07s-15.99 15.51-24.07 22.65c-10.75.66-21.78 1-33.02 1s-22.27-.34-33.02-1c-8.08-7.14-16.12-14.7-24.07-22.65s-15.51-15.99-22.65-24.07c-.66-10.75-1-21.78-1-33.02s.34-22.27 1-33.02c7.14-8.08 14.7-16.12 22.65-24.07s15.99-15.51 24.07-22.65c10.75-.66 21.78-1 33.02-1s22.27.34 33.02 1c8.08 7.14 16.12 14.7 24.07 22.65s15.51 15.99 22.65 24.07c.66 10.75 1 21.78 1 33.02z" fill="#ff9d33"/><path d="m256 306.74c-8.35 0-16.7-.197-24.909-.588-6.076-5.522-12.123-11.29-18.038-17.205-5.911-5.909-11.679-11.957-17.205-18.038-.391-8.208-.588-16.56-.588-24.909s.197-16.701.588-24.909c5.526-6.081 11.294-12.128 17.204-18.038 5.915-5.915 11.962-11.683 18.039-17.205 8.209-.391 16.56-.588 24.909-.588s16.7.197 24.909.588c6.076 5.522 12.123 11.29 18.038 17.205 5.911 5.909 11.679 11.957 17.205 18.038.391 8.208.588 16.56.588 24.909s-.197 16.701-.588 24.909c-5.526 6.081-11.294 12.128-17.204 18.038-5.915 5.915-11.962 11.683-18.039 17.205-8.209.391-16.559.588-24.909.588z" fill="#ffc599"/></g><g><g><g><path d="m280.433 256.651c-.884 0-1.777-.234-2.589-.726-6.578-3.991-14.132-6.101-21.844-6.101s-15.266 2.109-21.844 6.101c-2.362 1.433-5.436.678-6.869-1.682-1.432-2.361-.679-5.437 1.682-6.869 8.143-4.938 17.49-7.55 27.031-7.55s18.889 2.611 27.031 7.55c2.36 1.433 3.113 4.508 1.682 6.869-.942 1.551-2.59 2.408-4.28 2.408z" fill="#fff"/></g><g><path d="m266.392 272.888c-.883 0-1.777-.234-2.588-.726-4.699-2.852-10.908-2.852-15.607 0-2.358 1.433-5.435.679-6.868-1.683-1.432-2.36-.679-5.436 1.683-6.868 3.913-2.373 8.404-3.628 12.989-3.628s9.076 1.255 12.989 3.628c2.361 1.433 3.114 4.508 1.683 6.868-.942 1.551-2.591 2.409-4.281 2.409z" fill="#fff"/></g><g><path d="m293.424 239.567c-.883 0-1.777-.234-2.588-.726-10.493-6.364-22.539-9.729-34.836-9.729s-24.343 3.364-34.836 9.729c-2.361 1.434-5.437.679-6.868-1.683-1.432-2.36-.679-5.436 1.683-6.868 12.056-7.313 25.896-11.178 40.021-11.178s27.966 3.865 40.021 11.178c2.361 1.433 3.114 4.508 1.683 6.868-.94 1.552-2.59 2.409-4.28 2.409z" fill="#fff"/></g></g></g><g fill="#ff6c6c"><circle cx="195.874" cy="389.226" r="13.932"/><circle cx="398.678" cy="186.74" r="13.932"/><circle cx="197.377" cy="103.755" r="13.932"/></g><g><circle cx="412.61" cy="356.333" fill="#ff6c6c" r="13.932"/><path d="m470 246c0-21.238-18.652-41.347-52.571-56.786.107-.812.181-1.634.181-2.475 0-10.438-8.493-18.932-18.933-18.932-6.706 0-12.595 3.516-15.959 8.79-14.658-4.254-30.412-7.706-46.983-10.323-3.436-21.814-8.3-42.127-14.468-60.174.295-.132.592-.271.886-.401 36.142-16 64.607-17.441 78.101-3.955 11.072 11.073 10.164 29.808 7.452 43.574-.534 2.71 1.229 5.339 3.938 5.872 2.718.533 5.34-1.229 5.872-3.938 4.564-23.166 1.04-41.347-10.192-52.579-16.816-16.811-48.503-16.144-89.219 1.883-.084.037-.169.077-.253.115-.033-.085-.064-.173-.097-.258-16.045-41.537-37.978-64.413-61.755-64.413-21.314 0-41.477 18.772-56.938 52.909-.556-.05-1.116-.085-1.685-.085-5.965 0-11.287 2.78-14.759 7.104-35.21-13.315-62.824-12.367-77.938 2.752-16.813 16.813-16.146 48.497 1.878 89.215.037.084.077.168.114.252-.085.033-.173.064-.259.097-41.537 16.046-64.413 37.979-64.413 61.756s22.876 45.71 64.413 61.756c.085.033.173.064.258.097-.037.084-.077.169-.115.253-18.026 40.716-18.694 72.401-1.881 89.221 8.032 8.024 19.677 12.125 34.137 12.125 4.594 0 9.472-.414 14.608-1.247 2.726-.442 4.577-3.011 4.135-5.736-.442-2.727-3.006-4.577-5.736-4.135-12.553 2.037-29.695 2.289-40.073-8.079-13.487-13.491-12.046-41.958 3.954-78.101.13-.294.269-.591.401-.886 18.045 6.167 38.356 11.031 60.167 14.467 2.618 16.58 6.077 32.335 10.336 47.001-5.759 3.25-9.662 9.418-9.662 16.489 0 10.439 8.493 18.933 18.932 18.933 1.201 0 2.372-.125 3.512-.34 15.42 33.688 35.443 52.182 56.614 52.182 23.777 0 45.71-22.876 61.756-64.413.033-.085.065-.173.097-.259.084.037.168.077.252.114 21.104 9.342 39.778 14.021 55.216 14.021 14.348 0 25.9-4.043 33.999-12.143 5.883-5.882 9.665-13.625 11.269-23.038 7.514-2.511 12.952-9.601 12.952-17.949 0-9.313-6.766-17.059-15.636-18.625-2.403-9.464-5.954-19.472-10.558-29.862.079-.031.16-.06.239-.09 41.538-16.046 64.414-37.979 64.414-61.756zm-71.322-68.192c4.926 0 8.933 4.007 8.933 8.932 0 4.926-4.007 8.933-8.933 8.933-4.925 0-8.932-4.007-8.932-8.933s4.007-8.932 8.932-8.932zm-18.902 8.348c-.006.195-.03.386-.03.583 0 5.511 2.382 10.465 6.153 13.928-6.699 12.184-14.544 24.551-23.411 36.932-6.801-8.903-14.104-17.812-21.867-26.644-.753-11.719-1.885-23.189-3.377-34.317 14.973 2.476 29.217 5.662 42.532 9.518zm-177.333 113.401c-7.406-7.406-14.514-14.937-21.288-22.539-.584-10.171-.896-20.521-.896-31.018 0-10.494.312-20.843.896-31.014 6.775-7.603 13.883-15.134 21.29-22.541 7.411-7.411 14.947-14.522 22.553-21.3 10.169-.586 20.524-.885 31.002-.885 10.488 0 20.833.311 31.003.896 7.604 6.777 15.139 13.873 22.554 21.288 7.422 7.422 14.528 14.962 21.299 22.559.586 10.168.885 20.521.885 30.998 0 10.473-.299 20.823-.884 30.987-6.779 7.604-13.877 15.144-21.301 22.568s-14.963 14.522-22.567 21.301c-10.165.585-20.515.884-30.988.884-10.479 0-20.836-.3-31.006-.885-7.607-6.779-15.142-13.89-22.552-21.299zm6.427 20.111c-8.093-.724-16.039-1.634-23.804-2.725-1.095-7.773-2.006-15.718-2.729-23.808 4.238 4.535 8.582 9.038 13.037 13.492 4.455 4.456 8.959 8.801 13.496 13.041zm-11.493-196.98c5.54 0 10.516-2.407 13.981-6.212 11.96 6.619 24.095 14.332 36.242 23.031-8.921 6.812-17.829 14.121-26.646 21.872-11.718.753-23.187 1.885-34.315 3.377 2.452-14.824 5.599-28.935 9.405-42.135.442.03.883.067 1.333.067zm58.616 22.993c6.271 4.722 12.532 9.693 18.762 14.901-6.2-.209-12.453-.322-18.755-.322-6.3 0-12.556.112-18.76.322 6.232-5.209 12.492-10.184 18.753-14.901zm-47.118 26.651c-4.538 4.24-9.043 8.586-13.5 13.043-4.455 4.455-8.799 8.958-13.038 13.494.724-8.092 1.635-16.037 2.731-23.812 7.765-1.092 15.713-2.002 23.807-2.725zm-37.509 38.636c-7.748 8.814-15.054 17.719-21.864 26.637-11.601-16.181-21.424-32.271-29.107-47.775 16.392-5.529 34.711-9.959 54.351-13.198-1.496 11.145-2.629 22.614-3.38 34.336zm-.785 16.273c-.208 6.201-.321 12.455-.321 18.759 0 6.306.112 12.561.32 18.762-5.211-6.235-10.187-12.498-14.906-18.76 4.719-6.263 9.695-12.525 14.907-18.761zm132.557-54.902c8.089.724 16.031 1.635 23.805 2.731 1.091 7.765 2.001 15.711 2.725 23.805-4.237-4.535-8.581-9.042-13.042-13.501-4.455-4.457-8.956-8.798-13.488-13.035zm-47.138 159.401c6.299 0 12.554-.112 18.757-.322-6.232 5.21-12.492 10.184-18.762 14.906-6.263-4.719-12.525-9.695-18.76-14.906 6.206.21 12.463.322 18.765.322zm35.065-1.12c11.714-.753 23.18-1.885 34.304-3.376-3.239 19.644-7.67 37.967-13.199 54.361-15.498-7.68-31.582-17.5-47.758-29.095 8.931-6.819 17.836-14.133 26.653-21.89zm12.066-10.952c4.532-4.238 9.035-8.583 13.494-13.043 4.46-4.46 8.805-8.962 13.043-13.495-.724 8.096-1.634 16.044-2.726 23.812-7.767 1.092-15.715 2.002-23.811 2.726zm37.489-38.605c7.762-8.823 15.081-17.735 21.902-26.673 11.698 16.291 21.532 32.396 29.14 47.759-16.41 5.539-34.752 9.976-54.419 13.219 1.492-11.124 2.624-22.59 3.377-34.305zm.798-16.308c.21-6.203.322-12.457.322-18.755 0-6.304-.112-12.564-.323-18.772 5.22 6.242 10.203 12.501 14.917 18.748-4.724 6.275-9.702 12.542-14.916 18.779zm-16.05-100.004c-11.139-1.496-22.6-2.631-34.313-3.382-8.813-7.751-17.719-15.052-26.652-21.871 16.179-11.599 32.266-21.422 47.766-29.104 5.529 16.394 9.96 34.715 13.199 54.357zm-69.368-122.751c19.075 0 38.185 21.146 52.428 58.017.116.3.227.607.342.908-17.12 8.401-34.922 19.325-52.776 32.32-13.416-9.757-26.845-18.369-40.073-25.674.253-1.233.387-2.509.387-3.816 0-6.306-3.112-11.888-7.868-15.33 13.682-29.966 30.51-46.425 47.56-46.425zm-58.623 52.823c4.925 0 8.932 4.007 8.932 8.932 0 4.926-4.007 8.933-8.932 8.933-4.926 0-8.933-4.007-8.933-8.933 0-4.925 4.007-8.932 8.933-8.932zm-81.675 85.024c-16-36.144-17.44-64.608-3.952-78.097 12.125-12.125 35.814-12.325 66.901-.637-.122.866-.207 1.743-.207 2.642 0 6.434 3.232 12.12 8.151 15.542-4.253 14.655-7.707 30.4-10.323 46.967-21.813 3.436-42.124 8.3-60.17 14.467-.131-.294-.27-.591-.4-.884zm-5.685 118.581c-36.871-14.243-58.017-33.353-58.017-52.428s21.146-38.185 58.017-52.428c.3-.116.607-.228.908-.342 8.399 17.12 19.321 34.92 32.315 52.772-12.993 17.851-23.915 35.65-32.315 52.768-.301-.115-.609-.227-.908-.342zm10.378 3.741c7.683-15.502 17.507-31.59 29.108-47.771 6.81 8.919 14.116 17.824 21.865 26.639.75 11.72 1.878 23.189 3.374 34.329-19.639-3.239-37.957-7.669-54.347-13.197zm100.554 28.452c8.818 7.752 17.726 15.061 26.649 21.874-12.687 9.087-25.359 17.102-37.833 23.911-3.368-3.646-8.136-5.966-13.45-6.089-3.929-13.469-7.166-27.897-9.676-43.072 11.127 1.491 22.594 2.623 34.31 3.376zm-34.007 58.605c0-4.925 4.007-8.932 8.932-8.932 4.926 0 8.933 4.007 8.933 8.932 0 4.926-4.007 8.933-8.933 8.933-4.925-.001-8.932-4.008-8.932-8.933zm121.486 2.757c-14.243 36.871-33.353 58.017-52.428 58.017-17.09 0-33.939-16.511-47.634-46.585 3.939-3.472 6.441-8.539 6.441-14.189 0-1.355-.149-2.674-.421-3.949 13.727-7.482 27.675-16.376 41.614-26.515 17.851 12.993 35.652 23.915 52.771 32.314-.116.3-.228.608-.343.907zm113.114-35.65c0 4.926-4.007 8.933-8.932 8.933-4.926 0-8.933-4.007-8.933-8.933 0-4.925 4.007-8.932 8.933-8.932 4.925 0 8.932 4.007 8.932 8.932zm-15.707-17.657c-7.098 2.734-12.157 9.607-12.157 17.657 0 8.951 6.251 16.454 14.612 18.416-1.414 6.344-4.097 11.557-8.04 15.501-13.49 13.488-41.954 12.048-78.097-3.952-.294-.13-.59-.269-.885-.4 6.166-18.044 11.03-38.353 14.466-60.163 21.83-3.439 42.157-8.308 60.213-14.483 4.249 9.532 7.578 18.721 9.888 27.424zm-37.075-92.68c9.918-13.64 18.644-27.289 26.022-40.732 1.258.264 2.56.407 3.896.407 6.028 0 11.394-2.841 14.864-7.244 29.981 13.685 46.458 30.524 46.458 47.573 0 19.075-21.146 38.185-58.017 52.428-.29.112-.587.22-.878.331-8.331-16.981-19.264-34.802-32.345-52.763z" fill="#00c"/></g></g><g><path d="m68.257 122.697c-7.175 0-13.012-5.837-13.012-13.012s5.837-13.012 13.012-13.012 13.013 5.837 13.013 13.012-5.838 13.012-13.013 13.012zm0-16.023c-1.661 0-3.012 1.351-3.012 3.012s1.351 3.012 3.012 3.012 3.013-1.351 3.013-3.012-1.352-3.012-3.013-3.012z" fill="#6c6cff"/></g><g><path d="m384.746 58.023c-7.175 0-13.013-5.837-13.013-13.012s5.838-13.011 13.013-13.011 13.012 5.837 13.012 13.012-5.837 13.011-13.012 13.011zm0-16.023c-1.661 0-3.013 1.351-3.013 3.012s1.352 3.012 3.013 3.012 3.012-1.351 3.012-3.012-1.351-3.012-3.012-3.012z" fill="#6c6cff"/></g><g><path d="m60.245 410.25c-7.175 0-13.012-5.838-13.012-13.013s5.837-13.012 13.012-13.012 13.012 5.837 13.012 13.012-5.837 13.013-13.012 13.013zm0-16.024c-1.661 0-3.012 1.351-3.012 3.012s1.351 3.013 3.012 3.013 3.012-1.352 3.012-3.013-1.351-3.012-3.012-3.012z" fill="#ff6c6c"/></g><g><path d="m348.032 471.292c-1.279 0-2.56-.488-3.535-1.465l-11.292-11.292c-1.953-1.952-1.953-5.118 0-7.07l11.292-11.292c1.951-1.953 5.119-1.953 7.07 0l11.292 11.292c1.953 1.952 1.953 5.118 0 7.07l-11.292 11.292c-.975.977-2.255 1.465-3.535 1.465zm-4.22-16.292 4.221 4.221 4.221-4.221-4.221-4.221z" fill="#ff9d33"/></g><g><path d="m440.708 69.316c-1.326 0-2.598-.526-3.535-1.465l-11.293-11.292c-.938-.938-1.465-2.209-1.465-3.535s.527-2.598 1.465-3.536l11.293-11.292c1.951-1.951 5.119-1.952 7.07.001l11.292 11.292c1.953 1.952 1.953 5.118.001 7.07l-11.292 11.293c-.938.937-2.21 1.464-3.536 1.464zm-4.222-16.293 4.222 4.222 4.221-4.222-4.221-4.221z" fill="#ff9d33"/></g></g></g></svg>